PathFileType	4	(X/Y/Z)	30_2_77_p1_0-980_filt_butterworth.trc
DataRate	CameraRate	NumFrames	NumMarkers	Units	OrigDataRate	OrigDataStartFrame	OrigNumFrames
50.0	50.0	7	27	m	50.0	735	980
Frame#	Time	RHip			RKnee			RAnkle			RBigToe			RSmallToe			RHeel			LHip			LKnee			LAnkle			LBigToe			LSmallToe			LHeel			Neck			Head			Nose			RShoulder			RElbow			RWrist			RThumb			RIndex			RPinky			LShoulder			LElbow			LWrist			LThumb			LIndex			LPinky			
		X1	Y1	Z1	X2	Y2	Z2	X3	Y3	Z3	X4	Y4	Z4	X5	Y5	Z5	X6	Y6	Z6	X7	Y7	Z7	X8	Y8	Z8	X9	Y9	Z9	X10	Y10	Z10	X11	Y11	Z11	X12	Y12	Z12	X13	Y13	Z13	X14	Y14	Z14	X15	Y15	Z15	X16	Y16	Z16	X17	Y17	Z17	X18	Y18	Z18	X19	Y19	Z19	X20	Y20	Z20	X21	Y21	Z21	X22	Y22	Z22	X23	Y23	Z23	X24	Y24	Z24	X25	Y25	Z25	X26	Y26	Z26	X27	Y27	Z27	
735	14.7	0.26085263085820204	0.5192502836969441	0.8879570219473528	0.2607182885901322	0.5227222970218086	1.3310700710211538	0.25853714640788283	0.5864103282870013	1.8148342394990513	0.23743586550644089	0.3215388125223152	1.773263675818847	0.29476470093534235	0.3859013246851085	1.8031326668167524	0.25823329903978526	0.6511727454836441	1.892269160105145	0.04130275036230518	0.5394354370590705	0.9068408598350135	0.061145599139325095	0.545385567113772	1.3541833265912404	0.08161501204390481	0.5546508525757197	1.8012428159851241	0.10109663559687657	0.3240303230418009	1.7618059391335277	0.046201692069129385	0.377612668418994	1.7892835461131666	0.0977961153952599	0.6359033157676701	1.8851800307518083	0.14240094385634436	0.5929989624909163	0.24146798554505464	0.1314415364332731	0.5842037764371117	-0.0015414214837006163	0.13836646367134658	0.5256958628999385	0.12862613468419054	0.3371832457090183	0.5616695917511554	0.32471419117607825	0.2774677657516259	0.3602644792946279	0.4432370243618551	0.163642695668906	0.1038039131645303	0.42956839390412577	0.16061637854430771	0.10598910604796372	0.484111140675514	0.09367155939457403	0.018957864129184904	0.4419489905387366	0.09197053912772389	-0.020365312466203184	0.4640265387799394	-0.02368540399685856	0.6092758421865048	0.3368256068489608	-0.0446488354717124	0.33259110045289564	0.4383438219593423	0.06579320629513266	0.1457923454842091	0.4572936251742511	0.1829402317928487	0.06871021197473447	0.471592957508241	0.14938625645071404	0.014561647447313997	0.45400589323765	0.17624913926157762	-0.19480674272286952	0.4597187094773096
736	14.72	0.259411483933484	0.51858339523796	0.8875327908647688	0.2591164072656734	0.5223513398911994	1.3309493611138756	0.25843201048379016	0.5863940737267889	1.8148525893336949	0.23569016026930162	0.32138141767691575	1.7732498281526028	0.2947658412993459	0.3857083643249348	1.8031514601778427	0.2581725496590769	0.6512281563805993	1.892445339341431	0.041333077674521115	0.5394695694611709	0.9060933560175874	0.05975815148164125	0.5406922142227398	1.3520407917303001	0.0804217269724431	0.5517765372540641	1.7996554546689338	0.10236280299501027	0.3219743003375115	1.760190130317735	0.04647097227967525	0.37758063458684954	1.7858068237690419	0.09603769865298084	0.6317653427532695	1.8858608788731317	0.14242986359061405	0.5928180411323402	0.24300251306896956	0.13063881121464482	0.5830716762976706	-0.0015187786367972015	0.13732112771409394	0.5253127961555625	0.12871305424789747	0.33702779708464964	0.561986080785377	0.3236691724661662	0.27786850307698324	0.3582767871670537	0.4419174873100901	0.16350851613843395	0.10353686335078284	0.4289986870821725	0.1620715672857792	0.1059712709251061	0.48526091557174267	0.09305879566754033	0.01871296093360874	0.4446660099624226	0.09129974776281556	-0.01851852896516741	0.4653664136174424	-0.022898240086929	0.6127309345412941	0.33617701107100495	-0.043405390836063804	0.33324485300104034	0.4386469312643938	0.0696092833892791	0.1496327002170921	0.4576263207047435	0.18399054520704916	0.07006517194660644	0.47077374770586433	0.1512193765106459	0.016444065370918054	0.45422904576738715	0.17005198753137768	-0.17481104342929943	0.463444502447693
737	14.74	0.2583922700555923	0.5183344572964476	0.886991902656611	0.25647614566194155	0.5219173710584185	1.330795614086019	0.25838910716442576	0.5863171944781965	1.81393970770901	0.23318646426982348	0.3211763925664086	1.7732401872646	0.29477456032135546	0.3855097992301242	1.8030854678386452	0.2581579713249159	0.6511728504284318	1.8929557646618396	0.041414674966167506	0.5396128123151269	0.904209181205558	0.05884808625607426	0.5377677582690814	1.351799711668951	0.07877552311558182	0.5499269055512717	1.7986105106526233	0.10327855123586704	0.32162847800439687	1.7588961776947225	0.046565628619852625	0.3775156115905707	1.78435759269709	0.09522223946351355	0.6290279958742206	1.886753197025232	0.1424544230291898	0.5927466352550711	0.2440115272456223	0.13006209537615288	0.5806288156120517	-0.001505577194309559	0.13668221609974043	0.5250513761389191	0.12883493226777354	0.33674723337784374	0.5620036973513222	0.32216505280698	0.2780945793194729	0.3577236919185421	0.44105482454301687	0.1633979160631885	0.10334529184966813	0.4287303049594167	0.16467963075402003	0.10652345325195173	0.48645453603732813	0.09479946703061501	0.0181239608365412	0.4476184125565186	0.09191526144154025	-0.017803759463688444	0.4657952838310398	-0.022979143355519503	0.61245988211326	0.33499907484237157	-0.04240802770236777	0.3339759504577135	0.43899966712471616	0.07299589787849205	0.152888252032083	0.4581842471087805	0.18477285667354232	0.07480857175791651	0.4695904137207255	0.15408016357447488	0.02109302703251892	0.45506234537555823	0.1517661616494058	-0.1110709540489346	0.47419730437389496
738	14.76	0.25812837618324147	0.5184503318754944	0.8861239846578506	0.2547099435400479	0.520748187431005	1.3302793314500359	0.25835123440232005	0.5860659127435127	1.812435040363945	0.23152201421920704	0.3207839661319832	1.7730224025873125	0.2948630158637644	0.38542731780753864	1.8030264724695113	0.2581835127787696	0.6509111170489912	1.8942248982964864	0.04157478602889514	0.539746418080124	0.9019610315126345	0.05864747944824288	0.5373995808334929	1.3525594283035514	0.0775658988437575	0.5508074949700491	1.798784960164328	0.10332656259808817	0.32169353716668553	1.7572849976046216	0.04658648111367523	0.37742789717240177	1.7843847772042583	0.093999845939548	0.6265981914449218	1.8860163849716534	0.14246101108233966	0.5927654298611835	0.24426632754603628	0.12902998009279668	0.5794628154813264	-0.0014374247509090902	0.13574113976510208	0.525002415706992	0.12897226793460909	0.3365558394829033	0.5618785960085775	0.3211147307926962	0.27798456357650175	0.3579447003675723	0.4411170826240795	0.1635179470073169	0.10424242810546469	0.429148625598348	0.1632772414265849	0.10910820219226124	0.4841554929758982	0.09775702538130121	0.01798902968401933	0.4492263261842808	0.0928686510792569	-0.017110155714296655	0.466034850496846	-0.023811749573298867	0.6087884314386895	0.33456261729861114	-0.04144015433125889	0.33404418947573333	0.4394149069914802	0.07467859729991358	0.15459753528010975	0.45903554720329154	0.1851918012907262	0.08341215230367881	0.4687429841872966	0.15838037385536674	0.030727571456583103	0.45734551752572916	0.1270593569885476	-0.019558065154186816	0.48954242743782517
739	14.78	0.2582387969024366	0.5187353159543837	0.8841186154438746	0.2545368440049126	0.5175325542787759	1.328817703269638	0.2582444756385074	0.5857852450822102	1.8126094042151586	0.23078713671366208	0.32052482132014204	1.7729264761649124	0.2949974645868526	0.385652039018328	1.8031750211560957	0.2582575228913218	0.6504288446280102	1.8959309884463278	0.04180618480081465	0.5398478250758235	0.9002735642102789	0.058673059464857354	0.537979455954075	1.352300702363205	0.07720933854754924	0.5524154430908352	1.7989805238117764	0.10302581008589642	0.32166631549220615	1.7561254199955756	0.04648404961230339	0.3774833450763898	1.7851228216329313	0.09163587006431076	0.623314913160196	1.883407781220848	0.1424611941585595	0.5928076597634298	0.24419611340401784	0.12761285897939034	0.5815676980553967	-0.0013035499019034243	0.13472011867215067	0.5251461056605614	0.1290650828753283	0.33650128783716926	0.5617972869341458	0.32083801774199844	0.2780883390773535	0.35534583218024807	0.44117128153655194	0.1641901365219242	0.10709176866363908	0.4299070217099068	0.15146133150513233	0.1155831190621195	0.47482130637656306	0.09946650839018384	0.020998960421362095	0.44986755212512425	0.09322686773949743	-0.015290841373297188	0.4669442349524192	-0.024828018869132558	0.6041467942804228	0.33520283966936437	-0.040672525856736	0.3335873678377481	0.4398761029502171	0.07457235482384024	0.15510361295862873	0.45977029989275564	0.18516441704142983	0.09487792621873717	0.4684006209494833	0.16362463630147547	0.04603272149727737	0.46118610118879555	0.11109216637390057	0.04710831846526732	0.5012033387718398
740	14.8	0.2584116825013608	0.5191178362794584	0.8806012038367365	0.2543554643722683	0.5127561708702717	1.326668598665311	0.25814355562890734	0.586003256468082	1.815677372315482	0.23101757756433575	0.32069230499346546	1.773176402242039	0.29474519045852987	0.38601073360023863	1.803438522927821	0.2583013376768542	0.6499678618383393	1.8975267104204232	0.04205735500404491	0.5399288821829984	0.8988556150145629	0.05864199236023941	0.5382368616689087	1.3508036690927057	0.07706701461114764	0.5516932246562075	1.7985044384814701	0.10287829845624369	0.32166690927405917	1.7559130817332123	0.04608792753539509	0.37790615258303784	1.7868302388056176	0.09001670228854304	0.6191504049779667	1.8800868383626763	0.14245701196256197	0.592844133493779	0.2441501985570616	0.12662772212836	0.5846969916953576	-0.0012052887923346065	0.13420243867939988	0.5244565595160969	0.1290693442305954	0.33653260278805686	0.5617677519915999	0.32090449485606687	0.27909758338292706	0.3472603815271606	0.43968472553248256	0.16552156515648742	0.11081727086259102	0.4301697355961216	0.1331784534467393	0.12617639108093223	0.4625365583719892	0.09950494718318037	0.029392288479239508	0.45086110587315575	0.09296912209055454	-0.01287079854103267	0.4682422564220737	-0.025439183977234412	0.6012692667687992	0.33605577532525815	-0.04028497313742481	0.3332481024700419	0.4402414238241047	0.07332992602770161	0.154710648799449	0.459830690406666	0.184219780963818	0.10799970731040129	0.4683919040820999	0.16759434457284247	0.06134253339591652	0.46494850791976405	0.10789600116033746	0.06807974982160692	0.5057763383404903
741	14.82	0.25857678581697835	0.519460594552972	0.8771393142595078	0.2532029312552014	0.5090450493704801	1.3250326726017516	0.258130502312506	0.5865576002744776	1.8194890770239494	0.23266848650822777	0.3210542317724452	1.7734708882446837	0.29352479012102756	0.38527686533304695	1.8029877149167888	0.2582744156909335	0.6499041959223127	1.899297002315513	0.04225033023922105	0.5399874318694599	0.8974230286652749	0.05872703766576662	0.5379641710176191	1.3495439525122115	0.07631931867951763	0.5475557616085732	1.7977807757002362	0.10287854356165241	0.32164980424501544	1.7561092284952158	0.04555772114082704	0.3784084105280153	1.788981619214991	0.09069679776065402	0.6129200498925433	1.8760367597774967	0.1424299346934978	0.5928590107520407	0.24415923420574143	0.12634186050635637	0.5850684344371114	-0.0014269177555751248	0.1333801340317171	0.5213227713381314	0.12898097029632696	0.33663485918160124	0.5617773108392013	0.3209471701388399	0.2808063855891414	0.336462868308398	0.4367252234892288	0.16738799242300878	0.11322923404346007	0.4296812245257103	0.12102553821031697	0.13741642196319193	0.4555086582519434	0.09937371379675872	0.040705877514737365	0.4522418602932766	0.09320037571295382	-0.01108210438293955	0.46855097665152945	-0.025787318719747068	0.5997244783229176	0.33633772406909723	-0.040440656310128456	0.3320945831338777	0.4403059572721	0.07193134494209602	0.15377243648193456	0.4592819216783841	0.18245006061897018	0.11856597246264566	0.4686999398741065	0.16895279777948596	0.07030999055453035	0.4667843030596674	0.10968959917756163	0.06615843417388031	0.5065187228144084
